<svg width="522" height="503" viewBox="0 0 522 503" fill="none" xmlns="http://www.w3.org/2000/svg">
<path d="M359.33 60.33C384.063 60.4039 407.761 70.2616 425.25 87.7502C442.738 105.239 452.596 128.937 452.67 153.67V340.33C452.596 365.063 442.738 388.761 425.25 406.25C407.761 423.738 384.063 433.596 359.33 433.67H172.67C147.937 433.596 124.239 423.738 106.75 406.25C89.2616 388.761 79.4039 365.063 79.33 340.33V153.67C79.4039 128.937 89.2616 105.239 106.75 87.7502C124.239 70.2616 147.937 60.4039 172.67 60.33H359.33V60.33ZM359.33 23H172.67C100.8 23 42 81.8 42 153.67V340.33C42 412.2 100.8 471 172.67 471H359.33C431.2 471 490 412.2 490 340.33V153.67C490 81.8 431.2 23 359.33 23V23Z" fill="#4F7DF3"/>
<path d="M387.33 153.67C381.792 153.67 376.379 152.028 371.774 148.951C367.17 145.874 363.581 141.501 361.461 136.385C359.342 131.269 358.788 125.639 359.868 120.207C360.948 114.776 363.615 109.787 367.531 105.871C371.447 101.955 376.436 99.2884 381.868 98.208C387.299 97.1276 392.929 97.6821 398.045 99.8014C403.162 101.921 407.534 105.509 410.611 110.114C413.688 114.719 415.33 120.132 415.33 125.67C415.338 129.349 414.619 132.994 413.215 136.394C411.81 139.795 409.748 142.885 407.147 145.487C404.545 148.088 401.455 150.15 398.055 151.555C394.654 152.959 391.009 153.678 387.33 153.67V153.67ZM266 172.33C280.768 172.33 295.205 176.709 307.484 184.914C319.764 193.119 329.335 204.781 334.986 218.425C340.638 232.069 342.116 247.083 339.235 261.567C336.354 276.052 329.242 289.357 318.8 299.8C308.357 310.242 295.052 317.354 280.567 320.235C266.083 323.116 251.069 321.638 237.425 315.986C223.781 310.334 212.119 300.764 203.914 288.484C195.709 276.205 191.33 261.768 191.33 247C191.351 227.203 199.225 208.222 213.224 194.224C227.223 180.225 246.203 172.351 266 172.33V172.33ZM266 135C243.849 135 222.194 141.569 203.776 153.875C185.358 166.182 171.003 183.674 162.526 204.139C154.049 224.605 151.831 247.124 156.152 268.85C160.474 290.576 171.141 310.532 186.804 326.196C202.468 341.859 222.424 352.526 244.15 356.848C265.876 361.17 288.395 358.952 308.861 350.475C329.326 341.997 346.818 327.642 359.125 309.224C371.431 290.806 378 269.151 378 247C378 217.296 366.2 188.808 345.196 167.804C324.192 146.8 295.704 135 266 135V135Z" fill="#4F7DF3"/>
</svg>
